<mxfile host="app.diagrams.net" modified="2022-11-04T10:26:13.220Z" agent="5.0 (Windows NT 10.0; Win64; x64) AppleWebKit/537.36 (KHTML, like Gecko) Chrome/107.0.0.0 Safari/537.36" etag="OFEWGYDp9rtWkA13NKwg" version="20.5.1" type="github" pages="2">
  <diagram id="xJYHhihHLI7nIDoQ8o4D" name="Page-1">
    <mxGraphModel dx="976" dy="587" grid="1" gridSize="10" guides="1" tooltips="1" connect="1" arrows="1" fold="1" page="1" pageScale="1" pageWidth="850" pageHeight="1100" math="0" shadow="0">
      <root>
        <mxCell id="0" />
        <mxCell id="1" parent="0" />
        <mxCell id="fvR2mFeVh4_XormhRoS0-1" value="Khách" style="shape=umlActor;verticalLabelPosition=bottom;verticalAlign=top;html=1;outlineConnect=0;" vertex="1" parent="1">
          <mxGeometry x="90" y="180" width="30" height="60" as="geometry" />
        </mxCell>
        <mxCell id="fvR2mFeVh4_XormhRoS0-2" value="Người dùng" style="shape=umlActor;verticalLabelPosition=bottom;verticalAlign=top;html=1;outlineConnect=0;" vertex="1" parent="1">
          <mxGeometry x="90" y="460" width="30" height="60" as="geometry" />
        </mxCell>
        <mxCell id="fvR2mFeVh4_XormhRoS0-3" value="Quản trị viên" style="shape=umlActor;verticalLabelPosition=bottom;verticalAlign=top;html=1;outlineConnect=0;" vertex="1" parent="1">
          <mxGeometry x="730" y="460" width="30" height="60" as="geometry" />
        </mxCell>
        <mxCell id="fvR2mFeVh4_XormhRoS0-6" value="Đăng ký" style="ellipse;whiteSpace=wrap;html=1;" vertex="1" parent="1">
          <mxGeometry x="240" y="100" width="120" height="40" as="geometry" />
        </mxCell>
        <mxCell id="fvR2mFeVh4_XormhRoS0-7" value="Đăng nhập" style="ellipse;whiteSpace=wrap;html=1;" vertex="1" parent="1">
          <mxGeometry x="240" y="160" width="120" height="40" as="geometry" />
        </mxCell>
        <mxCell id="fvR2mFeVh4_XormhRoS0-8" value="Thay đổi mật khẩu lần đầu" style="ellipse;whiteSpace=wrap;html=1;" vertex="1" parent="1">
          <mxGeometry x="470" y="160" width="120" height="40" as="geometry" />
        </mxCell>
        <mxCell id="fvR2mFeVh4_XormhRoS0-10" value="Tạo menu" style="ellipse;whiteSpace=wrap;html=1;" vertex="1" parent="1">
          <mxGeometry x="470" y="80" width="120" height="40" as="geometry" />
        </mxCell>
        <mxCell id="fvR2mFeVh4_XormhRoS0-13" value="&amp;lt;&amp;lt;include&amp;gt;&amp;gt;" style="endArrow=open;endSize=12;dashed=1;html=1;rounded=0;" edge="1" parent="1" source="fvR2mFeVh4_XormhRoS0-7" target="fvR2mFeVh4_XormhRoS0-10">
          <mxGeometry width="160" relative="1" as="geometry">
            <mxPoint x="360" y="100" as="sourcePoint" />
            <mxPoint x="520" y="59.5" as="targetPoint" />
          </mxGeometry>
        </mxCell>
        <mxCell id="fvR2mFeVh4_XormhRoS0-14" value="&amp;lt;&amp;lt;extend&amp;gt;&amp;gt;" style="endArrow=open;endSize=12;dashed=1;html=1;rounded=0;" edge="1" parent="1" source="fvR2mFeVh4_XormhRoS0-8" target="fvR2mFeVh4_XormhRoS0-7">
          <mxGeometry width="160" relative="1" as="geometry">
            <mxPoint x="390" y="120" as="sourcePoint" />
            <mxPoint x="550" y="120" as="targetPoint" />
          </mxGeometry>
        </mxCell>
        <mxCell id="fvR2mFeVh4_XormhRoS0-15" value="Đặt lại mật khẩu" style="ellipse;whiteSpace=wrap;html=1;" vertex="1" parent="1">
          <mxGeometry x="240" y="220" width="120" height="40" as="geometry" />
        </mxCell>
        <mxCell id="fvR2mFeVh4_XormhRoS0-16" value="" style="endArrow=none;html=1;rounded=0;" edge="1" parent="1" source="fvR2mFeVh4_XormhRoS0-1" target="fvR2mFeVh4_XormhRoS0-6">
          <mxGeometry width="50" height="50" relative="1" as="geometry">
            <mxPoint x="440" y="350" as="sourcePoint" />
            <mxPoint x="490" y="300" as="targetPoint" />
          </mxGeometry>
        </mxCell>
        <mxCell id="fvR2mFeVh4_XormhRoS0-17" value="" style="endArrow=none;html=1;rounded=0;" edge="1" parent="1" source="fvR2mFeVh4_XormhRoS0-1" target="fvR2mFeVh4_XormhRoS0-7">
          <mxGeometry width="50" height="50" relative="1" as="geometry">
            <mxPoint x="180" y="330" as="sourcePoint" />
            <mxPoint x="230" y="280" as="targetPoint" />
          </mxGeometry>
        </mxCell>
        <mxCell id="fvR2mFeVh4_XormhRoS0-18" value="" style="endArrow=none;html=1;rounded=0;" edge="1" parent="1" source="fvR2mFeVh4_XormhRoS0-1" target="fvR2mFeVh4_XormhRoS0-15">
          <mxGeometry width="50" height="50" relative="1" as="geometry">
            <mxPoint x="170" y="260" as="sourcePoint" />
            <mxPoint x="220" y="210" as="targetPoint" />
          </mxGeometry>
        </mxCell>
        <mxCell id="fvR2mFeVh4_XormhRoS0-19" value="Xem bài giảng" style="ellipse;whiteSpace=wrap;html=1;" vertex="1" parent="1">
          <mxGeometry x="400" y="220" width="120" height="40" as="geometry" />
        </mxCell>
        <mxCell id="fvR2mFeVh4_XormhRoS0-20" value="Xem bài giảng&lt;br&gt;miễn phí" style="ellipse;whiteSpace=wrap;html=1;" vertex="1" parent="1">
          <mxGeometry x="240" y="280" width="120" height="40" as="geometry" />
        </mxCell>
        <mxCell id="fvR2mFeVh4_XormhRoS0-21" value="Xem bài giảng&lt;br&gt;có phí" style="ellipse;whiteSpace=wrap;html=1;" vertex="1" parent="1">
          <mxGeometry x="400" y="300" width="120" height="40" as="geometry" />
        </mxCell>
        <mxCell id="fvR2mFeVh4_XormhRoS0-22" value="" style="endArrow=block;endSize=16;endFill=0;html=1;rounded=0;" edge="1" parent="1" source="fvR2mFeVh4_XormhRoS0-20" target="fvR2mFeVh4_XormhRoS0-19">
          <mxGeometry width="160" relative="1" as="geometry">
            <mxPoint x="390" y="310" as="sourcePoint" />
            <mxPoint x="550" y="310" as="targetPoint" />
          </mxGeometry>
        </mxCell>
        <mxCell id="fvR2mFeVh4_XormhRoS0-24" value="" style="endArrow=block;endSize=16;endFill=0;html=1;rounded=0;" edge="1" parent="1" source="fvR2mFeVh4_XormhRoS0-21" target="fvR2mFeVh4_XormhRoS0-19">
          <mxGeometry width="160" relative="1" as="geometry">
            <mxPoint x="310" y="370" as="sourcePoint" />
            <mxPoint x="310" y="330" as="targetPoint" />
          </mxGeometry>
        </mxCell>
        <mxCell id="fvR2mFeVh4_XormhRoS0-25" value="" style="endArrow=none;html=1;rounded=0;" edge="1" parent="1" source="fvR2mFeVh4_XormhRoS0-20" target="fvR2mFeVh4_XormhRoS0-1">
          <mxGeometry width="50" height="50" relative="1" as="geometry">
            <mxPoint x="440" y="330" as="sourcePoint" />
            <mxPoint x="140" y="120" as="targetPoint" />
          </mxGeometry>
        </mxCell>
        <mxCell id="fvR2mFeVh4_XormhRoS0-27" value="" style="endArrow=none;html=1;rounded=0;" edge="1" parent="1" source="fvR2mFeVh4_XormhRoS0-2" target="fvR2mFeVh4_XormhRoS0-19">
          <mxGeometry width="50" height="50" relative="1" as="geometry">
            <mxPoint x="240" y="510" as="sourcePoint" />
            <mxPoint x="290" y="460" as="targetPoint" />
            <Array as="points">
              <mxPoint x="260" y="340" />
              <mxPoint x="360" y="340" />
            </Array>
          </mxGeometry>
        </mxCell>
        <mxCell id="fvR2mFeVh4_XormhRoS0-28" value="Xem thông tin cá nhân" style="ellipse;whiteSpace=wrap;html=1;" vertex="1" parent="1">
          <mxGeometry x="240" y="360" width="120" height="40" as="geometry" />
        </mxCell>
        <mxCell id="fvR2mFeVh4_XormhRoS0-29" value="Sửa thông tin cá nhân" style="ellipse;whiteSpace=wrap;html=1;" vertex="1" parent="1">
          <mxGeometry x="240" y="420" width="120" height="40" as="geometry" />
        </mxCell>
        <mxCell id="fvR2mFeVh4_XormhRoS0-30" value="Đổi mật khẩu" style="ellipse;whiteSpace=wrap;html=1;" vertex="1" parent="1">
          <mxGeometry x="240" y="480" width="120" height="40" as="geometry" />
        </mxCell>
        <mxCell id="fvR2mFeVh4_XormhRoS0-31" value="Đăng xuất" style="ellipse;whiteSpace=wrap;html=1;" vertex="1" parent="1">
          <mxGeometry x="240" y="540" width="120" height="40" as="geometry" />
        </mxCell>
        <mxCell id="fvR2mFeVh4_XormhRoS0-32" value="" style="endArrow=none;html=1;rounded=0;" edge="1" parent="1" source="fvR2mFeVh4_XormhRoS0-28" target="fvR2mFeVh4_XormhRoS0-2">
          <mxGeometry width="50" height="50" relative="1" as="geometry">
            <mxPoint x="90" y="510" as="sourcePoint" />
            <mxPoint x="140" y="460" as="targetPoint" />
          </mxGeometry>
        </mxCell>
        <mxCell id="fvR2mFeVh4_XormhRoS0-33" value="" style="endArrow=none;html=1;rounded=0;" edge="1" parent="1" source="fvR2mFeVh4_XormhRoS0-29" target="fvR2mFeVh4_XormhRoS0-2">
          <mxGeometry width="50" height="50" relative="1" as="geometry">
            <mxPoint x="110" y="520" as="sourcePoint" />
            <mxPoint x="160" y="470" as="targetPoint" />
          </mxGeometry>
        </mxCell>
        <mxCell id="fvR2mFeVh4_XormhRoS0-34" value="" style="endArrow=none;html=1;rounded=0;" edge="1" parent="1" source="fvR2mFeVh4_XormhRoS0-2" target="fvR2mFeVh4_XormhRoS0-30">
          <mxGeometry width="50" height="50" relative="1" as="geometry">
            <mxPoint x="440" y="420" as="sourcePoint" />
            <mxPoint x="490" y="370" as="targetPoint" />
          </mxGeometry>
        </mxCell>
        <mxCell id="fvR2mFeVh4_XormhRoS0-35" value="" style="endArrow=none;html=1;rounded=0;" edge="1" parent="1" source="fvR2mFeVh4_XormhRoS0-2" target="fvR2mFeVh4_XormhRoS0-31">
          <mxGeometry width="50" height="50" relative="1" as="geometry">
            <mxPoint x="440" y="420" as="sourcePoint" />
            <mxPoint x="490" y="370" as="targetPoint" />
          </mxGeometry>
        </mxCell>
        <mxCell id="fvR2mFeVh4_XormhRoS0-36" value="Mua bài giảng" style="ellipse;whiteSpace=wrap;html=1;" vertex="1" parent="1">
          <mxGeometry x="240" y="600" width="120" height="40" as="geometry" />
        </mxCell>
        <mxCell id="fvR2mFeVh4_XormhRoS0-37" value="" style="endArrow=none;html=1;rounded=0;" edge="1" parent="1" source="fvR2mFeVh4_XormhRoS0-2" target="fvR2mFeVh4_XormhRoS0-36">
          <mxGeometry width="50" height="50" relative="1" as="geometry">
            <mxPoint x="440" y="420" as="sourcePoint" />
            <mxPoint x="490" y="370" as="targetPoint" />
          </mxGeometry>
        </mxCell>
        <mxCell id="fvR2mFeVh4_XormhRoS0-38" value="CRUD người dùng" style="ellipse;whiteSpace=wrap;html=1;" vertex="1" parent="1">
          <mxGeometry x="560" y="320" width="120" height="40" as="geometry" />
        </mxCell>
        <mxCell id="fvR2mFeVh4_XormhRoS0-39" value="CRUD bài giảng" style="ellipse;whiteSpace=wrap;html=1;" vertex="1" parent="1">
          <mxGeometry x="400" y="360" width="120" height="40" as="geometry" />
        </mxCell>
        <mxCell id="fvR2mFeVh4_XormhRoS0-40" value="Phân quyền người dùng" style="ellipse;whiteSpace=wrap;html=1;" vertex="1" parent="1">
          <mxGeometry x="400" y="420" width="120" height="40" as="geometry" />
        </mxCell>
        <mxCell id="fvR2mFeVh4_XormhRoS0-41" value="CRUD vai trò" style="ellipse;whiteSpace=wrap;html=1;" vertex="1" parent="1">
          <mxGeometry x="400" y="480" width="120" height="40" as="geometry" />
        </mxCell>
        <mxCell id="fvR2mFeVh4_XormhRoS0-42" value="CRUD chức năng" style="ellipse;whiteSpace=wrap;html=1;" vertex="1" parent="1">
          <mxGeometry x="400" y="540" width="120" height="40" as="geometry" />
        </mxCell>
        <mxCell id="fvR2mFeVh4_XormhRoS0-43" value="Quản lý chức năng theo vai trò" style="ellipse;whiteSpace=wrap;html=1;" vertex="1" parent="1">
          <mxGeometry x="400" y="600" width="120" height="40" as="geometry" />
        </mxCell>
        <mxCell id="fvR2mFeVh4_XormhRoS0-44" value="Quản trị người dùng" style="ellipse;whiteSpace=wrap;html=1;" vertex="1" parent="1">
          <mxGeometry x="560" y="600" width="120" height="40" as="geometry" />
        </mxCell>
        <mxCell id="fvR2mFeVh4_XormhRoS0-45" value="" style="endArrow=none;html=1;rounded=0;" edge="1" parent="1" source="fvR2mFeVh4_XormhRoS0-42" target="fvR2mFeVh4_XormhRoS0-3">
          <mxGeometry width="50" height="50" relative="1" as="geometry">
            <mxPoint x="440" y="400" as="sourcePoint" />
            <mxPoint x="490" y="350" as="targetPoint" />
          </mxGeometry>
        </mxCell>
        <mxCell id="fvR2mFeVh4_XormhRoS0-46" value="" style="endArrow=none;html=1;rounded=0;" edge="1" parent="1" source="fvR2mFeVh4_XormhRoS0-41" target="fvR2mFeVh4_XormhRoS0-3">
          <mxGeometry width="50" height="50" relative="1" as="geometry">
            <mxPoint x="440" y="400" as="sourcePoint" />
            <mxPoint x="490" y="350" as="targetPoint" />
          </mxGeometry>
        </mxCell>
        <mxCell id="fvR2mFeVh4_XormhRoS0-47" value="" style="endArrow=none;html=1;rounded=0;" edge="1" parent="1" source="fvR2mFeVh4_XormhRoS0-40" target="fvR2mFeVh4_XormhRoS0-3">
          <mxGeometry width="50" height="50" relative="1" as="geometry">
            <mxPoint x="440" y="400" as="sourcePoint" />
            <mxPoint x="490" y="350" as="targetPoint" />
          </mxGeometry>
        </mxCell>
        <mxCell id="fvR2mFeVh4_XormhRoS0-48" value="" style="endArrow=none;html=1;rounded=0;" edge="1" parent="1" source="fvR2mFeVh4_XormhRoS0-39" target="fvR2mFeVh4_XormhRoS0-3">
          <mxGeometry width="50" height="50" relative="1" as="geometry">
            <mxPoint x="440" y="400" as="sourcePoint" />
            <mxPoint x="490" y="350" as="targetPoint" />
          </mxGeometry>
        </mxCell>
        <mxCell id="fvR2mFeVh4_XormhRoS0-49" value="" style="endArrow=none;html=1;rounded=0;" edge="1" parent="1" source="fvR2mFeVh4_XormhRoS0-38" target="fvR2mFeVh4_XormhRoS0-3">
          <mxGeometry width="50" height="50" relative="1" as="geometry">
            <mxPoint x="440" y="400" as="sourcePoint" />
            <mxPoint x="490" y="350" as="targetPoint" />
          </mxGeometry>
        </mxCell>
        <mxCell id="fvR2mFeVh4_XormhRoS0-50" value="" style="endArrow=none;html=1;rounded=0;" edge="1" parent="1" source="fvR2mFeVh4_XormhRoS0-43" target="fvR2mFeVh4_XormhRoS0-3">
          <mxGeometry width="50" height="50" relative="1" as="geometry">
            <mxPoint x="440" y="400" as="sourcePoint" />
            <mxPoint x="490" y="350" as="targetPoint" />
          </mxGeometry>
        </mxCell>
        <mxCell id="fvR2mFeVh4_XormhRoS0-51" value="" style="endArrow=none;html=1;rounded=0;" edge="1" parent="1" source="fvR2mFeVh4_XormhRoS0-44" target="fvR2mFeVh4_XormhRoS0-3">
          <mxGeometry width="50" height="50" relative="1" as="geometry">
            <mxPoint x="440" y="400" as="sourcePoint" />
            <mxPoint x="490" y="350" as="targetPoint" />
          </mxGeometry>
        </mxCell>
        <mxCell id="fvR2mFeVh4_XormhRoS0-52" value="" style="endArrow=block;endSize=16;endFill=0;html=1;rounded=0;" edge="1" parent="1">
          <mxGeometry width="160" relative="1" as="geometry">
            <mxPoint x="745" y="540" as="sourcePoint" />
            <mxPoint x="105" y="540" as="targetPoint" />
            <Array as="points">
              <mxPoint x="745" y="660" />
              <mxPoint x="105" y="660" />
            </Array>
          </mxGeometry>
        </mxCell>
      </root>
    </mxGraphModel>
  </diagram>
  <diagram id="k-SjtLy5yDHI6ORb3rEg" name="Page-2">
    <mxGraphModel dx="976" dy="587" grid="1" gridSize="10" guides="1" tooltips="1" connect="1" arrows="1" fold="1" page="1" pageScale="1" pageWidth="850" pageHeight="1100" math="0" shadow="0">
      <root>
        <mxCell id="0" />
        <mxCell id="1" parent="0" />
      </root>
    </mxGraphModel>
  </diagram>
</mxfile>
